<?xml version="1.0" encoding="UTF-8" standalone="no"?><!DOCTYPE svg PUBLIC "-//W3C//DTD SVG 1.1//EN" "http://www.w3.org/Graphics/SVG/1.1/DTD/svg11.dtd"><svg width="100%" height="100%" viewBox="0 0 1670 1304" version="1.1" xmlns="http://www.w3.org/2000/svg" xmlns:xlink="http://www.w3.org/1999/xlink" xml:space="preserve" xmlns:serif="http://www.serif.com/" style="fill-rule:evenodd;clip-rule:evenodd;stroke-linejoin:round;stroke-miterlimit:2;"><g transform="matrix(1,0,0.0133874,0.1813,-3.99816,244.506)"><g transform="matrix(11158.5,0,0,11158.5,-471.711,298.651)"><path d="M0.19,-0.021c-0.001,0.014 -0.009,0.021 -0.025,0.021l-0.101,-0c-0.013,-0 -0.02,-0.006 -0.02,-0.018l0,-0.113c0,-0.011 0.005,-0.017 0.014,-0.017l0.118,0c0.009,0 0.014,0.005 0.014,0.015l-0.001,0.112Z" style="fill-rule:nonzero;"/></g></g><g transform="matrix(1,0,0.0133874,0.1813,-10.7919,659.975)"><g transform="matrix(11158.5,0,0,11158.5,-471.711,806.126)"><path d="M0.19,-0.021c-0.001,0.014 -0.009,0.021 -0.025,0.021l-0.101,-0c-0.013,-0 -0.02,-0.006 -0.02,-0.018l0,-0.113c0,-0.011 0.005,-0.017 0.014,-0.017l0.118,0c0.009,0 0.014,0.005 0.014,0.015l-0.001,0.112Z" style="fill-rule:nonzero;"/></g></g><g transform="matrix(1,0,0.0133874,0.1813,-17.4551,1067.46)"><g transform="matrix(11158.5,0,0,11158.5,-445.466,1303.85)"><path d="M0.19,-0.021c-0.001,0.014 -0.009,0.021 -0.025,0.021l-0.101,-0c-0.013,-0 -0.02,-0.006 -0.02,-0.018l0,-0.113c0,-0.011 0.005,-0.017 0.014,-0.017l0.118,0c0.009,0 0.014,0.005 0.014,0.015l-0.001,0.112Z" style="fill-rule:nonzero;"/></g></g></svg>